<svg width="35" height="29" viewBox="0 0 35 29" fill="none" xmlns="http://www.w3.org/2000/svg">
<g clip-path="url(#clip0_225_1128)">
<path d="M26.1006 19.9H7.90062C5.30062 19.9 3.70062 18.1 3.30062 16.3C3.00062 15.2 0.700622 7.10005 0.000622334 4.90005C-0.0993777 4.60005 0.100622 4.30005 0.400622 4.30005H30.0006V6.30005H2.50062C3.30062 8.90005 5.00062 14.8 5.20062 15.9C5.40062 16.8 6.30062 17.9 7.90062 17.9H26.1006V19.9Z" fill="#2B7BC6"/>
<path d="M24.6 24.8L23 23.7C23.2 23.4 23.4 23.1 23.5 22.7C24 21.2 27.5 8.8 29 3.5C29.5 1.4 31.3 0 33.5 0H34.7C34.8 0 35 0.2 35 0.3V1.6C35 1.8 34.8 2 34.7 2H33.5C32.3 2 31.2 2.8 30.9 4C29.4 9.3 25.9 21.8 25.4 23.4C25.2 23.9 24.9 24.4 24.6 24.8Z" fill="#2B7BC6"/>
<path d="M20.5004 25H8.40039V27H20.5004V25Z" fill="#2B7BC6"/>
<path d="M6 29C4.3 29 3 27.6 3 26C3 24.3 4.4 23 6 23C7.7 23 9 24.4 9 26C9 27.6 7.7 29 6 29ZM6 24.9C5.4 24.9 5 25.4 5 25.9C5 26.5 5.5 26.9 6 26.9C6.5 26.9 7 26.4 7 25.9C7 25.4 6.6 24.9 6 24.9Z" fill="#2B7BC6"/>
<path d="M22.5996 29C20.8996 29 19.5996 27.6 19.5996 26C19.5996 24.3 20.9996 23 22.5996 23C24.2996 23 25.5996 24.4 25.5996 26C25.6996 27.6 24.2996 29 22.5996 29ZM22.5996 24.9C21.9996 24.9 21.5996 25.4 21.5996 25.9C21.5996 26.5 22.0996 26.9 22.5996 26.9C23.0996 26.9 23.5996 26.4 23.5996 25.9C23.6996 25.4 23.1996 24.9 22.5996 24.9Z" fill="#2B7BC6"/>
</g>
<defs>
<clipPath id="clip0_225_1128">
<rect width="35" height="29" fill="white"/>
</clipPath>
</defs>
</svg>
